<!-- <svg width="131" height="39" viewBox="0 0 131 39" fill="none" xmlns="http://www.w3.org/2000/svg">
<path fill-rule="evenodd" clip-rule="evenodd" d="M17 39C26.3888 39 34 31.3888 34 22C34 12.6112 26.3888 5 17 5C7.61114 5 0 12.6112 0 22C0 31.3888 7.61114 39 17 39ZM22.3034 12.9193C22.5616 12.0023 21.6717 11.4601 20.859 12.0391L9.51415 20.1211C8.63278 20.749 8.77142 22 9.7224 22H12.7098V21.9768H18.5321L13.788 23.6508L11.6966 31.0807C11.4385 31.9977 12.3282 32.5399 13.141 31.9609L24.4859 23.8789C25.3672 23.251 25.2285 22 24.2776 22H19.7473L22.3034 12.9193Z" fill="white"/>
<path d="M45.16 30V8.91H49.24V30H45.16ZM48.16 30V26.4H59.83V30H48.16ZM48.16 20.97V17.49H58.78V20.97H48.16ZM48.16 12.51V8.91H59.68V12.51H48.16ZM67.7669 30.33C66.9469 30.33 66.1369 30.22 65.3369 30C64.5569 29.78 63.8369 29.48 63.1769 29.1C62.5169 28.7 61.9469 28.22 61.4669 27.66L63.8069 25.29C64.3069 25.85 64.8869 26.27 65.5469 26.55C66.2069 26.83 66.9369 26.97 67.7369 26.97C68.3769 26.97 68.8569 26.88 69.1769 26.7C69.5169 26.52 69.6869 26.25 69.6869 25.89C69.6869 25.49 69.5069 25.18 69.1469 24.96C68.8069 24.74 68.3569 24.56 67.7969 24.42C67.2369 24.26 66.6469 24.09 66.0269 23.91C65.4269 23.71 64.8469 23.46 64.2869 23.16C63.7269 22.84 63.2669 22.41 62.9069 21.87C62.5669 21.31 62.3969 20.59 62.3969 19.71C62.3969 18.79 62.6169 17.99 63.0569 17.31C63.5169 16.63 64.1669 16.1 65.0069 15.72C65.8469 15.34 66.8369 15.15 67.9769 15.15C69.1769 15.15 70.2569 15.36 71.2169 15.78C72.1969 16.2 73.0069 16.83 73.6469 17.67L71.2769 20.04C70.8369 19.5 70.3369 19.11 69.7769 18.87C69.2369 18.63 68.6469 18.51 68.0069 18.51C67.4269 18.51 66.9769 18.6 66.6569 18.78C66.3569 18.96 66.2069 19.21 66.2069 19.53C66.2069 19.89 66.3769 20.17 66.7169 20.37C67.0769 20.57 67.5369 20.75 68.0969 20.91C68.6569 21.05 69.2369 21.22 69.8369 21.42C70.4569 21.6 71.0369 21.86 71.5769 22.2C72.1369 22.54 72.5869 22.99 72.9269 23.55C73.2869 24.11 73.4669 24.83 73.4669 25.71C73.4669 27.13 72.9569 28.26 71.9369 29.1C70.9169 29.92 69.5269 30.33 67.7669 30.33ZM78.247 30V9.48H82.177V30H78.247ZM74.857 18.96V15.51H85.567V18.96H74.857ZM93.4855 30.3C92.1655 30.3 90.9755 29.97 89.9155 29.31C88.8555 28.65 88.0255 27.75 87.4255 26.61C86.8255 25.47 86.5255 24.19 86.5255 22.77C86.5255 21.33 86.8255 20.04 87.4255 18.9C88.0255 17.76 88.8555 16.86 89.9155 16.2C90.9755 15.54 92.1655 15.21 93.4855 15.21C94.5255 15.21 95.4555 15.42 96.2755 15.84C97.0955 16.26 97.7455 16.85 98.2255 17.61C98.7255 18.35 98.9955 19.19 99.0355 20.13V25.35C98.9955 26.31 98.7255 27.16 98.2255 27.9C97.7455 28.64 97.0955 29.23 96.2755 29.67C95.4555 30.09 94.5255 30.3 93.4855 30.3ZM94.2055 26.67C95.3055 26.67 96.1955 26.31 96.8755 25.59C97.5555 24.85 97.8955 23.9 97.8955 22.74C97.8955 21.98 97.7355 21.31 97.4155 20.73C97.1155 20.13 96.6855 19.67 96.1255 19.35C95.5855 19.01 94.9455 18.84 94.2055 18.84C93.4855 18.84 92.8455 19.01 92.2855 19.35C91.7455 19.67 91.3155 20.13 90.9955 20.73C90.6955 21.31 90.5455 21.98 90.5455 22.74C90.5455 23.52 90.6955 24.21 90.9955 24.81C91.3155 25.39 91.7455 25.85 92.2855 26.19C92.8455 26.51 93.4855 26.67 94.2055 26.67ZM97.6855 30V26.1L98.3155 22.56L97.6855 19.08V15.51H101.586V30H97.6855ZM107.192 30V9.48H111.122V30H107.192ZM103.802 18.96V15.51H114.512V18.96H103.802ZM123.301 30.3C121.781 30.3 120.431 29.98 119.251 29.34C118.071 28.68 117.131 27.78 116.431 26.64C115.751 25.5 115.411 24.2 115.411 22.74C115.411 21.3 115.741 20.02 116.401 18.9C117.081 17.76 118.001 16.86 119.161 16.2C120.321 15.52 121.611 15.18 123.031 15.18C124.431 15.18 125.661 15.5 126.721 16.14C127.801 16.76 128.641 17.62 129.241 18.72C129.861 19.8 130.171 21.03 130.171 22.41C130.171 22.67 130.151 22.94 130.111 23.22C130.091 23.48 130.041 23.78 129.961 24.12L117.781 24.15V21.21L128.131 21.18L126.541 22.41C126.501 21.55 126.341 20.83 126.061 20.25C125.801 19.67 125.411 19.23 124.891 18.93C124.391 18.61 123.771 18.45 123.031 18.45C122.251 18.45 121.571 18.63 120.991 18.99C120.411 19.33 119.961 19.82 119.641 20.46C119.341 21.08 119.191 21.82 119.191 22.68C119.191 23.56 119.351 24.33 119.671 24.99C120.011 25.63 120.491 26.13 121.111 26.49C121.731 26.83 122.451 27 123.271 27C124.011 27 124.681 26.88 125.281 26.64C125.881 26.38 126.401 26 126.841 25.5L129.151 27.81C128.451 28.63 127.591 29.25 126.571 29.67C125.571 30.09 124.481 30.3 123.301 30.3Z" fill="white"/>
</svg> -->


<svg xmlns="http://www.w3.org/2000/svg" xml:space="preserve" width="131" height="39" data-id="lg_gghSN07oVmFxVBKfq0" data-version="1" viewBox="0 0 2000 1500"><path fill="#fff" stroke="transparent" d="M0 0h2000v1500H0z"/><g data-padding="20"><g transform="translate(-1647.059 -1248.198)scale(2.57847)"><rect width="397.056" height="121.904" x="427.823" y="314.627" fill="none" rx="0" ry="0" transform="translate(481.97 399.09)"/><path fill="#3d3d3d" d="M946.41 764.699h-4.99l-5.09-13.14h-16.6l-5.07 13.14h-4.87l16.2-41.57h4.33Zm-25.07-17.42h13.54l-4.84-13.05q-.17-.51-.55-1.67-.39-1.16-.78-2.41-.4-1.25-.65-2.01-.29 1.16-.61 2.31-.33 1.14-.64 2.12t-.54 1.66Zm44.79-14.18q5.52 0 8.35 2.71 2.84 2.7 2.84 8.68v20.22h-4.65v-19.91q0-3.88-1.77-5.8-1.77-1.93-5.42-1.93-5.16 0-7.25 2.92-2.1 2.91-2.1 8.46v16.26h-4.7v-31.04h3.8l.7 4.48h.26q.99-1.65 2.52-2.77 1.53-1.11 3.43-1.69 1.89-.59 3.99-.59m32.48.06q5.55 0 8.24 2.49 2.69 2.5 2.69 7.96v21.1h-3.42l-.91-4.59h-.23q-1.3 1.7-2.71 2.85-1.42 1.15-3.28 1.73-1.85.58-4.54.58-2.83 0-5.03-.99-2.19-1-3.45-3.01t-1.26-5.09q0-4.65 3.68-7.14t11.21-2.72l5.36-.23v-1.89q0-4.03-1.73-5.64t-4.87-1.61q-2.44 0-4.65.7-2.21.71-4.19 1.68l-1.44-3.57q2.09-1.08 4.81-1.84 2.72-.77 5.72-.77m6.29 19.12v-2.86l-4.73.2q-5.81.22-8.18 1.89-2.38 1.67-2.38 4.73 0 2.66 1.61 3.94 1.62 1.27 4.28 1.27 4.13 0 6.77-2.29 2.63-2.29 2.63-6.88m29.02-19.18q5.52 0 8.35 2.71 2.83 2.7 2.83 8.68v20.22h-4.64v-19.91q0-3.88-1.77-5.8-1.77-1.93-5.42-1.93-5.16 0-7.25 2.92-2.1 2.91-2.1 8.46v16.26h-4.7v-31.04h3.79l.71 4.48h.26q.99-1.65 2.52-2.77 1.53-1.11 3.42-1.69 1.9-.59 4-.59m31.91 32.18q-5.89 0-9.33-4.02-3.44-4.03-3.44-11.96 0-8.01 3.51-12.1 3.52-4.1 9.35-4.1 2.46 0 4.3.66 1.85.65 3.18 1.74t2.23 2.48h.34q-.11-.88-.22-2.41-.12-1.53-.12-2.49v-12.44h4.7v44.07h-3.79l-.71-4.42h-.2q-.87 1.39-2.22 2.52-1.34 1.14-3.2 1.8-1.85.67-4.38.67m.74-3.91q4.99 0 7.05-2.83 2.07-2.84 2.07-8.41v-.85q0-5.92-1.97-9.1-1.97-3.17-7.15-3.17-4.33 0-6.48 3.33-2.16 3.33-2.16 9.08 0 5.72 2.14 8.83 2.14 3.12 6.5 3.12m-118.75 18.3v41.4h-5.55l-22.57-34.77h-.22q.08 1.38.19 3.15.12 1.77.19 3.77t.07 4.07v23.78h-4.48v-41.4h5.53l22.48 34.66h.2q-.06-.99-.14-2.81-.09-1.83-.16-3.94t-.07-3.92v-23.99Zm31.5 10.37h4.73v31.03h-3.86l-.68-4.36h-.25q-.96 1.62-2.49 2.72-1.53 1.11-3.44 1.66-1.92.55-4.07.55-3.68 0-6.17-1.19t-3.75-3.68-1.26-6.4v-20.33h4.75v19.99q0 3.88 1.76 5.79t5.35 1.91q3.46 0 5.51-1.3t2.96-3.84q.91-2.53.91-6.21Zm28.78-.57q.93 0 1.95.1t1.82.27l-.6 4.36q-.76-.2-1.7-.31-.93-.12-1.75-.12-1.87 0-3.53.75t-2.9 2.16q-1.25 1.4-1.96 3.37-.7 1.96-.7 4.37v16.65H994v-31.03h3.9l.51 5.72h.2q.97-1.73 2.32-3.16 1.36-1.43 3.16-2.28t4.01-.85m29.67 23.1q0 2.97-1.49 5-1.48 2.02-4.25 3.04-2.76 1.02-6.58 1.02-3.26 0-5.64-.51-2.37-.51-4.16-1.44v-4.34q1.9.94 4.53 1.7 2.64.77 5.38.77 4.02 0 5.84-1.31 1.81-1.3 1.81-3.54 0-1.27-.72-2.25-.72-.97-2.42-1.89t-4.7-2.03q-2.98-1.13-5.14-2.25-2.17-1.12-3.35-2.73-1.17-1.62-1.17-4.19 0-3.94 3.18-6.05 3.19-2.11 8.37-2.11 2.81 0 5.26.55t4.57 1.49l-1.59 3.76q-1.92-.82-4.1-1.38-2.18-.57-4.45-.57-3.26 0-5 1.08-1.74 1.07-1.74 2.94 0 1.45.81 2.38.81.94 2.59 1.76t4.7 1.92q2.92 1.08 5.04 2.23 2.13 1.14 3.27 2.77 1.15 1.63 1.15 4.18m7.56-22.53h4.7v31.03h-4.7Zm2.41-11.62q1.16 0 1.99.75.84.76.84 2.34 0 1.56-.84 2.32-.83.77-1.99.77-1.22 0-2.03-.77-.8-.76-.8-2.32 0-1.58.8-2.34.81-.75 2.03-.75m26.94 11.05q5.52 0 8.36 2.7 2.83 2.71 2.83 8.68v20.22h-4.65v-19.9q0-3.88-1.77-5.81t-5.42-1.93q-5.15 0-7.25 2.92t-2.1 8.47v16.25h-4.7v-31.03h3.8l.71 4.47h.25q.99-1.64 2.52-2.76t3.43-1.7 3.99-.58m29.53 45.54q-6.12 0-9.43-2.28-3.32-2.28-3.32-6.39 0-2.91 1.86-4.98 1.85-2.07 5.14-2.75-1.22-.57-2.08-1.7-.87-1.13-.87-2.6 0-1.7.95-2.99t2.91-2.48q-2.44-.99-3.95-3.36-1.52-2.36-1.52-5.5 0-3.35 1.39-5.71 1.39-2.37 4.02-3.61 2.63-1.25 6.37-1.25.82 0 1.66.07.83.07 1.6.2.76.13 1.33.3h10.65v3.03l-5.72.71q.85 1.1 1.41 2.66.57 1.56.57 3.45 0 4.65-3.14 7.38-3.15 2.73-8.64 2.73-1.3 0-2.66-.22-1.39.76-2.11 1.7-.73.93-.73 2.15 0 .91.56 1.44.55.54 1.6.78 1.04.24 2.52.24h5.46q5.07 0 7.78 2.13 2.7 2.12 2.7 6.2 0 5.15-4.19 7.9t-12.12 2.75m.14-3.68q3.85 0 6.39-.78 2.53-.78 3.79-2.24t1.26-3.47q0-1.87-.85-2.82t-2.49-1.27q-1.64-.33-4.02-.33h-5.38q-2.1 0-3.66.65-1.55.66-2.39 1.93-.83 1.27-.83 3.17 0 2.52 2.12 3.84t6.06 1.32m1.22-24.81q3.37 0 5.07-1.7t1.7-4.96q0-3.48-1.73-5.22t-5.1-1.74q-3.23 0-4.97 1.79-1.74 1.8-1.74 5.26 0 3.17 1.76 4.87 1.75 1.7 5.01 1.7m68.62-26.85v41.4h-4.82v-19.51h-21.75v19.51h-4.81v-41.4h4.81v17.64h21.75v-17.64Zm37.45 25.82q0 3.82-.99 6.82-.99 3.01-2.86 5.07-1.87 2.07-4.52 3.16t-5.99 1.09q-3.12 0-5.71-1.09t-4.47-3.16q-1.88-2.06-2.92-5.07-1.03-3-1.03-6.82 0-5.1 1.73-8.68 1.72-3.58 4.94-5.47 3.21-1.88 7.66-1.88 4.25 0 7.43 1.9 3.19 1.89 4.96 5.48 1.77 3.58 1.77 8.65m-23.62 0q0 3.74.99 6.48.99 2.75 3.06 4.25t5.32 1.5q3.23 0 5.31-1.5t3.08-4.25q.99-2.74.99-6.48 0-3.71-.99-6.42-1-2.7-3.06-4.17-2.07-1.48-5.36-1.48-4.84 0-7.09 3.2t-2.25 8.87m65.45-16.02q5.12 0 7.73 2.68 2.6 2.67 2.6 8.59v20.33h-4.64v-20.1q0-3.77-1.63-5.65-1.63-1.89-4.83-1.89-4.5 0-6.54 2.61-2.04 2.6-2.04 7.67v17.36h-4.67v-20.1q0-2.52-.72-4.19-.73-1.68-2.16-2.51-1.43-.84-3.61-.84-3.08 0-4.95 1.28-1.87 1.27-2.71 3.78-.83 2.51-.83 6.16v16.42h-4.7v-31.03h3.79l.71 4.39h.25q.94-1.62 2.35-2.72 1.42-1.11 3.18-1.67 1.75-.57 3.73-.57 3.54 0 5.94 1.32 2.39 1.31 3.47 4h.25q1.53-2.69 4.19-4 2.67-1.32 5.84-1.32m31.94-.01q3.97 0 6.8 1.75 2.83 1.76 4.33 4.92t1.5 7.38v2.91h-21.44q.09 5.47 2.72 8.33 2.64 2.86 7.42 2.86 2.95 0 5.21-.54 2.27-.54 4.71-1.58v4.13q-2.36 1.05-4.66 1.53-2.31.48-5.45.48-4.48 0-7.81-1.83-3.32-1.82-5.17-5.36-1.84-3.54-1.84-8.67 0-5.01 1.69-8.68 1.68-3.67 4.76-5.65 3.07-1.98 7.23-1.98m-.05 3.85q-3.77 0-6.01 2.46-2.24 2.47-2.66 6.89h16.43q-.03-2.78-.87-4.89-.83-2.11-2.53-3.28-1.7-1.18-4.36-1.18"/><path fill="#7d4d27" d="m773.896 760.689-.418.419v88.71h27.869v-25.083h20.898v25.084h29.27v-87.97l-39.413-39.381Zm34.422 55.706H787.42v-19.53h20.898Zm0-26.484H787.42v-19.513h20.898Zm29.254 26.468h-20.898v-19.497h20.898Zm0-26.468h-20.898v-19.513h20.898Zm-10.98-45.708v8.34h-9.918v9.917h-8.356v-9.917h-9.901v-8.34h9.9v-9.901h8.373v9.917Z"/><path fill="#7d4d27" d="M851.804 739.615 827.46 715.27l-15.182-15.182-15.183 15.182-23.2 23.2-27.547 27.548 8.694 8.694 18.45-18.435.403-.42 38.206-38.204.177-.177 39.525 39.542 17.485 17.484 8.694-8.71Z"/></g><path fill="transparent" stroke="transparent" stroke-width="2.674" d="M250 549.465h1500v401.07H250z"/></g></svg>